<?xml version="1.0" standalone="no"?>
<!DOCTYPE svg PUBLIC "-//W3C//DTD SVG 20010904//EN"
 "http://www.w3.org/TR/2001/REC-SVG-20010904/DTD/svg10.dtd">
<svg version="1.0" xmlns="http://www.w3.org/2000/svg"
 width="1250.000000pt" height="1350.000000pt" viewBox="0 0 1250.000000 1350.000000"
 preserveAspectRatio="xMidYMid meet">

<g transform="translate(0.000000,1350.000000) scale(0.100000,-0.100000)"
fill="#000000" stroke="none">
<path d="M4635 10520 c-164 -26 -368 -99 -495 -177 -49 -31 -119 -91 -205
-177 -118 -118 -234 -260 -223 -271 3 -3 35 30 72 73 173 198 375 339 581 407
116 38 235 56 405 62 177 6 334 -6 547 -42 145 -25 236 -45 808 -179 326 -77
809 -174 1045 -211 328 -52 682 -52 887 0 190 48 348 126 418 205 l20 23 -20
-6 c-11 -3 -61 -23 -111 -46 -206 -90 -413 -131 -662 -131 -365 1 -604 39
-1512 245 -985 224 -990 225 -1290 230 -113 2 -232 0 -265 -5z"/>
<path d="M4635 10303 c-66 -9 -244 -46 -305 -65 -199 -60 -418 -229 -555 -428
-40 -58 -49 -80 -53 -125 -13 -159 50 -194 206 -116 104 52 346 133 478 160
221 45 527 51 800 16 127 -17 656 -121 814 -161 113 -28 313 -65 540 -101 139
-21 211 -26 460 -30 185 -3 342 -1 420 6 240 22 505 97 761 216 78 36 148 64
156 61 18 -7 17 -103 -1 -198 -16 -81 -73 -272 -108 -361 l-23 -59 -138 -79
c-76 -43 -141 -79 -146 -79 -4 0 -16 30 -25 68 -34 141 -105 240 -205 285 -37
17 -65 21 -141 21 -82 0 -105 -4 -170 -30 -236 -94 -418 -310 -507 -599 -27
-88 -28 -95 -27 -340 0 -221 3 -272 27 -434 15 -101 30 -218 33 -260 6 -70 5
-75 -10 -61 -9 9 -47 87 -86 174 -38 87 -77 168 -87 179 -24 26 -92 57 -112
50 -28 -10 -51 -35 -141 -148 -86 -108 -202 -227 -267 -273 l-33 -23 -11 28
c-7 19 -9 108 -6 278 6 279 9 300 101 710 73 329 71 320 53 349 -24 35 -95 59
-161 54 -80 -7 -153 -48 -242 -139 l-76 -79 -58 0 c-62 0 -170 29 -207 55 -20
14 -23 25 -23 92 0 101 -26 261 -57 348 -80 224 -203 309 -349 241 -104 -48
-152 -182 -120 -334 33 -158 124 -284 284 -393 39 -27 72 -56 72 -63 0 -32
-44 -182 -86 -291 -69 -180 -195 -429 -264 -520 -71 -95 -185 -215 -204 -215
-8 0 -17 8 -21 18 -16 36 -18 466 -4 667 18 258 18 719 1 797 -18 77 -47 118
-107 148 -99 49 -258 25 -328 -48 -45 -48 -96 -156 -146 -308 -87 -264 -123
-478 -126 -734 l-1 -176 -62 -134 c-81 -176 -115 -236 -127 -230 -28 14 12
480 89 1055 57 424 40 563 -82 677 -91 86 -254 119 -406 84 -139 -33 -324
-152 -417 -269 -137 -172 -169 -440 -74 -627 37 -74 82 -120 115 -120 53 0 81
22 42 32 -40 11 -55 170 -26 269 36 119 134 265 222 330 74 54 73 63 2 -367
-64 -378 -73 -474 -74 -739 0 -197 2 -228 22 -300 68 -247 193 -372 384 -383
207 -12 284 55 392 341 23 61 46 111 50 110 5 -1 19 -28 32 -60 31 -77 106
-184 162 -233 25 -22 74 -54 109 -72 117 -58 322 -49 455 18 143 72 346 371
472 694 51 132 128 377 146 465 18 88 18 89 129 80 53 -3 101 -10 108 -13 9
-5 -1 -34 -33 -102 -57 -118 -117 -299 -140 -416 -22 -119 -15 -357 14 -456
43 -142 129 -256 235 -307 134 -65 364 -44 478 43 56 42 149 162 229 294 34
57 67 101 72 100 6 -2 37 -83 69 -181 59 -178 88 -246 118 -281 46 -52 146
-72 279 -57 196 23 352 168 407 376 13 48 18 154 25 545 12 684 25 824 84 939
22 42 46 39 91 -10 47 -52 75 -118 82 -195 8 -87 -7 -119 -98 -220 -99 -107
-133 -169 -133 -242 0 -40 5 -57 21 -73 70 -70 227 85 314 310 36 91 34 90
182 171 43 23 81 40 84 36 4 -3 -28 -113 -70 -244 -138 -425 -169 -592 -171
-917 -1 -189 0 -203 23 -259 34 -84 71 -145 104 -170 25 -18 42 -21 131 -21
71 0 111 5 130 15 41 21 72 85 90 181 22 119 77 288 148 454 101 236 267 533
276 492 2 -9 -24 -97 -57 -195 -116 -344 -150 -518 -158 -812 -10 -370 39
-535 175 -587 99 -38 208 -13 270 63 40 48 141 227 206 366 70 149 166 389
166 416 0 29 -43 56 -75 48 -37 -9 -71 -59 -129 -191 -96 -217 -164 -340 -180
-324 -8 8 65 300 119 479 66 217 153 569 176 710 15 89 20 158 17 240 -4 133
-17 166 -86 215 -55 38 -158 47 -216 20 -50 -24 -130 -113 -284 -318 -119
-158 -152 -195 -152 -169 0 10 117 357 169 500 22 61 64 187 92 280 50 160 52
172 52 283 0 134 -14 187 -72 276 -74 114 -195 172 -378 181 -128 6 -205 -5
-405 -53 -176 -43 -262 -55 -404 -55 -325 0 -1099 127 -1569 257 -272 75 -606
150 -794 178 -191 28 -539 43 -656 28z m724 -1039 c19 -42 40 -143 31 -149
-10 -6 -60 132 -60 167 0 18 17 7 29 -18z"/>
<path d="M8782 10273 c-12 -2 -27 -13 -33 -24 -17 -33 5 -49 68 -49 67 0 96
-15 155 -78 55 -59 69 -84 99 -182 33 -106 31 -292 -4 -480 -40 -214 -40 -215
-23 -249 18 -33 21 -34 170 -51 106 -13 141 -26 195 -75 86 -78 119 -206 101
-388 -15 -149 -36 -259 -66 -344 -15 -39 -27 -95 -28 -125 -1 -47 1 -53 20
-56 50 -7 155 163 233 376 88 239 -16 524 -228 632 -35 17 -104 40 -154 51
-50 11 -94 22 -96 25 -3 2 10 64 29 137 27 108 34 157 38 267 5 163 -5 222
-60 332 -48 96 -147 202 -223 241 -39 19 -165 54 -169 46 -1 -1 -11 -4 -24 -6z"/>
<path d="M3257 9699 c-160 -38 -381 -232 -489 -430 -111 -202 -138 -292 -138
-454 0 -109 18 -185 67 -277 70 -135 176 -217 318 -249 34 -7 55 -17 55 -26 0
-7 -14 -40 -30 -73 -61 -121 -99 -257 -100 -353 0 -123 63 -313 146 -439 99
-150 256 -268 362 -271 70 -3 65 17 -30 117 -107 113 -209 251 -253 340 -83
168 -86 376 -11 616 15 45 26 83 26 85 0 3 -37 29 -83 58 -187 121 -255 261
-244 501 6 144 23 210 82 328 87 173 242 364 359 442 70 46 82 62 66 81 -14
16 -45 18 -103 4z"/>
<path d="M6144 9421 c-77 -35 -113 -126 -81 -203 20 -48 101 -88 192 -95 77
-7 113 6 155 54 66 74 22 184 -95 239 -60 29 -116 30 -171 5z"/>
<path d="M7855 7071 c-58 -15 -76 -25 -106 -59 -57 -65 -192 -349 -269 -568
-23 -65 -43 -120 -44 -122 -2 -1 -61 -14 -132 -28 -71 -14 -184 -44 -251 -67
l-121 -41 -71 67 c-63 59 -79 69 -156 93 -73 23 -98 26 -178 22 -77 -3 -103
-9 -157 -34 -220 -104 -350 -328 -351 -604 0 -93 4 -120 39 -240 22 -74 65
-222 96 -329 53 -181 85 -336 72 -349 -3 -3 -15 3 -26 13 -41 37 -243 355
-254 400 -8 31 -56 55 -110 55 -47 0 -68 -26 -220 -276 -155 -254 -231 -364
-253 -364 -14 0 -15 19 -10 188 5 158 13 230 52 462 68 410 71 556 10 635 -32
43 -115 85 -179 92 -155 16 -209 -43 -304 -337 -51 -157 -88 -295 -108 -396
-8 -44 -28 -108 -44 -142 -68 -145 -235 -397 -309 -467 -42 -39 -51 -25 -51
86 0 274 44 572 151 1024 127 532 157 784 109 937 -41 132 -146 234 -288 278
-169 52 -332 -15 -332 -138 0 -44 22 -58 69 -43 54 16 59 15 66 -19 13 -59
-12 -168 -125 -535 -81 -267 -167 -620 -192 -787 -32 -220 -32 -547 0 -663 49
-180 149 -324 262 -377 92 -44 230 -60 311 -38 99 28 164 103 271 316 40 79
76 144 79 144 3 0 16 -37 28 -82 27 -97 48 -141 107 -224 48 -69 120 -126 184
-149 23 -8 83 -18 134 -21 80 -6 98 -4 138 14 101 44 161 123 308 402 93 177
125 230 139 230 4 0 20 -37 35 -82 92 -272 189 -376 393 -424 103 -24 283 -16
343 15 147 77 230 218 230 392 0 135 -51 365 -113 504 -115 262 -178 561 -148
707 14 64 47 121 75 126 31 6 136 -109 136 -150 0 -10 -24 -50 -54 -89 -85
-112 -106 -206 -63 -289 31 -62 85 -102 144 -107 41 -4 51 -1 69 19 38 41 84
225 84 334 0 53 1 56 33 69 42 17 220 45 291 45 42 0 56 -4 56 -14 0 -16 -35
-179 -80 -373 -68 -297 -101 -729 -65 -867 25 -95 92 -214 160 -282 100 -101
276 -173 420 -174 167 0 321 107 497 343 94 128 178 313 178 394 0 29 -5 36
-35 49 -82 34 -107 17 -222 -148 -104 -151 -195 -255 -267 -306 -40 -29 -47
-31 -52 -17 -22 57 38 344 135 645 22 69 65 211 96 315 30 105 62 209 71 233
19 50 21 50 175 22 394 -71 816 -37 1001 81 71 46 143 130 168 197 37 97 14
168 -86 269 -41 40 -76 66 -102 74 -85 25 -128 -16 -98 -94 22 -59 20 -84 -13
-142 -35 -61 -87 -99 -173 -128 -92 -31 -354 -30 -563 2 -163 24 -225 38 -225
49 0 4 11 61 25 127 28 137 49 382 39 464 -8 74 -27 112 -79 160 -53 49 -123
85 -193 100 -72 15 -125 13 -207 -8z m-1021 -1198 c-9 -52 -31 -103 -43 -103
-17 0 -12 51 9 98 24 53 43 56 34 5z"/>
<path d="M5388 6693 c-31 -48 -70 -103 -85 -121 l-28 -32 -90 25 c-142 39
-159 19 -70 -85 30 -36 55 -72 55 -80 0 -8 -27 -53 -61 -100 -73 -102 -92
-137 -85 -156 9 -24 37 -16 155 41 65 32 121 53 131 50 9 -3 50 -46 90 -96
100 -124 139 -152 154 -112 4 10 2 67 -5 129 -6 61 -9 123 -5 137 7 28 8 29
155 72 58 16 106 36 109 42 5 18 -36 31 -157 50 -58 9 -111 20 -117 25 -6 4
-14 59 -17 123 -7 124 -20 168 -52 173 -16 2 -33 -17 -77 -85z"/>
<path d="M3737 6433 c-9 -245 -41 -359 -198 -700 -216 -471 -243 -542 -270
-732 -17 -121 -7 -365 20 -465 68 -257 240 -433 512 -527 79 -27 239 -37 322
-19 107 22 297 135 297 176 0 8 -2 14 -5 14 -2 0 -38 -22 -78 -48 -91 -59
-145 -76 -234 -70 -167 9 -335 161 -411 371 -67 185 -99 463 -88 761 13 333
32 444 136 776 74 238 94 346 86 456 -9 116 -30 164 -74 164 -5 0 -12 -71 -15
-157z"/>
<path d="M9676 6472 c-3 -5 7 -33 22 -63 24 -49 27 -64 27 -169 -1 -105 -3
-120 -29 -178 -38 -83 -142 -182 -240 -228 -185 -87 -371 -99 -776 -48 -146
19 -383 24 -388 9 -8 -24 272 -91 608 -146 300 -49 581 -18 723 79 24 17 70
59 103 95 96 102 126 185 126 347 -1 126 -29 219 -82 272 -36 36 -81 50 -94
30z"/>
<path d="M8773 5328 c-6 -7 -14 -33 -18 -58 -12 -73 -64 -220 -106 -299 -82
-153 -256 -354 -416 -482 -139 -110 -326 -209 -461 -243 -246 -62 -692 -74
-1232 -31 -560 44 -783 44 -1075 -1 -148 -22 -352 -73 -420 -104 -72 -32 -264
-151 -290 -180 -18 -20 -18 -20 4 -20 12 0 47 13 79 29 216 109 681 192 987
177 153 -8 376 -28 605 -56 294 -35 476 -43 814 -37 414 7 563 29 750 108 220
94 484 303 592 469 61 95 179 339 199 415 23 84 31 284 13 308 -12 15 -16 16
-25 5z"/>
<path d="M12010 980 l0 -450 -5769 0 c-3836 0 -5772 -3 -5776 -10 -4 -7 1923
-10 5774 -10 l5781 0 0 460 c0 253 -2 460 -5 460 -3 0 -5 -202 -5 -450z"/>
</g>
</svg>
